<svg width="240" height="43" viewBox="0 0 240 43" fill="none" xmlns="http://www.w3.org/2000/svg">
<g clip-path="url(#clip0_521_2020)">
<path d="M31.5 32C37.299 26.201 37.299 16.799 31.5 11C25.701 5.20101 16.299 5.20101 10.5 11C4.70101 16.799 4.70101 26.201 10.5 32C16.299 37.799 25.701 37.799 31.5 32Z" fill="#866AFA"/>
<path fill-rule="evenodd" clip-rule="evenodd" d="M16.7455 12.2861H25.252C27.9864 12.2861 30.2335 14.5331 30.2335 17.2676V25.7325C30.2335 28.4669 27.9864 30.7139 25.252 30.7139H16.7455C14.011 30.7139 11.764 28.4669 11.764 25.7325V17.2676C11.764 14.5331 14.011 12.2861 16.7455 12.2861ZM25.9594 15.5051C26.533 15.5051 27.0175 15.9895 27.0175 16.5632C27.0175 17.1368 26.533 17.6213 25.9594 17.6213C25.3412 17.6213 24.9013 17.1368 24.9013 16.5632C24.9013 15.9895 25.3412 15.5051 25.9594 15.5051ZM20.9779 16.474H21.0225C23.757 16.474 26.0486 18.7656 26.0486 21.5C26.0486 24.2761 23.757 26.5261 21.0225 26.5261H20.9779C18.2435 26.5261 15.9965 24.2791 15.9965 21.5C15.9965 18.7656 18.2435 16.474 20.9779 16.474ZM20.9779 18.1919H21.0225C22.8296 18.1919 24.3276 19.6899 24.3276 21.4971C24.3276 23.3488 22.8296 24.8468 21.0225 24.8468H20.9779C19.1708 24.8468 17.6728 23.3488 17.6728 21.4971C17.6728 19.6899 19.1708 18.1919 20.9779 18.1919ZM16.7901 13.8733H25.2104C27.1067 13.8733 28.6493 15.4159 28.6493 17.3122V25.6879C28.6493 27.5842 27.1067 29.1268 25.2104 29.1268H16.7901C14.8938 29.1268 13.3512 27.5842 13.3512 25.6879V17.3122C13.3512 15.4159 14.8938 13.8733 16.7901 13.8733Z" fill="white"/>
</g>
<g clip-path="url(#clip1_521_2020)">
<path d="M97.5 32C103.299 26.201 103.299 16.799 97.5 11C91.701 5.20101 82.299 5.20101 76.5 11C70.701 16.799 70.701 26.201 76.5 32C82.299 37.799 91.701 37.799 97.5 32Z" fill="#866AFA"/>
<path fill-rule="evenodd" clip-rule="evenodd" d="M86.8656 18.4225C86.0689 14.2926 91.1112 11.8369 94.0822 14.8157C94.0822 14.8157 95.41 14.4495 96.5751 13.7171C96.5751 13.7171 96.1502 15.1297 94.7195 16.0158C94.7195 16.0158 96.3129 15.8065 97 15.388C97 15.388 96.3095 16.8006 95.0382 17.3205C95.7286 26.7803 85.3817 32.5288 77 27.8267C77 27.8267 81.1394 28.036 82.8888 26.0511C82.8888 26.0511 80.3427 26.2604 79.068 23.2292C79.068 23.2292 80.0241 23.5954 80.9768 23.1246C80.9768 23.1246 78.0058 22.6537 77.7402 19.1516C77.7402 19.1516 78.6963 19.8841 79.7552 19.6225C79.7552 19.6225 76.4656 17.69 78.3212 14.1879C78.3212 14.1879 81.8232 18.5794 86.8622 18.4225H86.8656Z" fill="white"/>
</g>
<g clip-path="url(#clip2_521_2020)">
<path d="M163.5 32C169.299 26.201 169.299 16.799 163.5 11C157.701 5.20101 148.299 5.20101 142.5 11C136.701 16.799 136.701 26.201 142.5 32C148.299 37.799 157.701 37.799 163.5 32Z" fill="#866AFA"/>
<path fill-rule="evenodd" clip-rule="evenodd" d="M145.118 18.8062H148.375V29.744H145.118V18.8062ZM146.725 13.2571C147.81 13.2571 148.696 14.1428 148.696 15.2277C148.696 16.3125 147.81 17.1983 146.725 17.1983C145.641 17.1983 144.797 16.3125 144.797 15.2277C144.797 14.1428 145.641 13.2571 146.725 13.2571ZM150.304 18.8062H153.52V20.334C154.204 19.3293 155.33 18.6844 156.617 18.6844H157.503C159.554 18.6844 161.203 20.3726 161.203 22.3848V29.744H157.987V28.7394V23.8323C157.946 22.5869 157.102 21.6209 155.856 21.6209C154.611 21.6209 153.565 22.5869 153.523 23.8323V29.744H150.307V18.8062H150.304Z" fill="white"/>
</g>
<g clip-path="url(#clip3_521_2020)">
<path d="M229.5 32C235.299 26.201 235.299 16.799 229.5 11C223.701 5.20101 214.299 5.20101 208.5 11C202.701 16.799 202.701 26.201 208.5 32C214.299 37.799 223.701 37.799 229.5 32Z" fill="#866AFA"/>
<path fill-rule="evenodd" clip-rule="evenodd" d="M225.939 14.5H212.895C210.693 14.5 209 16.2044 209 18.4197V25.5803C209 27.7956 210.693 29.5 212.895 29.5H225.935C228.136 29.5 230 27.7956 230 25.5803V18.4197C230 16.2044 228.136 14.5 225.935 14.5H225.939ZM222.889 22L217.301 18.7628V25.241L222.889 22.0038V22Z" fill="white"/>
</g>
<defs>
<clipPath id="clip0_521_2020">
<rect width="42" height="42" fill="white" transform="translate(0 0.5)"/>
</clipPath>
<clipPath id="clip1_521_2020">
<rect width="42" height="42" fill="white" transform="translate(66 0.5)"/>
</clipPath>
<clipPath id="clip2_521_2020">
<rect width="42" height="42" fill="white" transform="translate(132 0.5)"/>
</clipPath>
<clipPath id="clip3_521_2020">
<rect width="42" height="42" fill="white" transform="translate(198 0.5)"/>
</clipPath>
</defs>
</svg>
